<svg xmlns="http://www.w3.org/2000/svg" width="250" height="250" viewBox="0 0 250 250">
  <g id="CREATIVE_CORNER_ROUND" data-name="CREATIVE CORNER ROUND" transform="translate(-334.002 302.91)">
    <rect id="Rectangle_119" data-name="Rectangle 119" width="250" height="250" rx="125" transform="translate(334.002 -302.91)" fill="#141414"/>
    <g id="Group_594" data-name="Group 594" transform="translate(4.759)">
      <g id="Group_592" data-name="Group 592" transform="translate(421.237 -204.962)">
        <path id="Path_47" data-name="Path 47" d="M487.34,231.308c0-6.192,4.441-10.108,9.829-10.108a9.232,9.232,0,0,1,7.2,3.077l-1.782,1.574c-1.434-2.376-2.8-4.13-4.967-4.13-2.936,0-4.753,3.119-4.753,8.317,0,5.912,2.31,8.744,5.736,8.744a6.9,6.9,0,0,0,5.562-3.147l.42.245c-1.995,3.042-4.617,4.967-8.254,4.967C491.3,240.858,487.34,237.185,487.34,231.308Z" transform="translate(-477.339 -188.348)" fill="#e0d8cd"/>
        <path id="Path_48" data-name="Path 48" d="M608.52,231.133c0-5.981,4.372-9.933,10.178-9.933,5.7,0,9.9,3.713,9.9,9.724,0,5.982-4.406,9.934-10.178,9.934C612.717,240.858,608.52,237.149,608.52,231.133Zm14.62.036c0-5.668-1.678-9.478-4.652-9.478-3.079,0-4.513,3.671-4.513,9.269,0,5.63,1.68,9.409,4.619,9.409,3.077,0,4.552-3.673,4.552-9.2Z" transform="translate(-580.522 -188.348)" fill="#e0d8cd"/>
        <path id="Path_49" data-name="Path 49" d="M774.463,220.8l-1.365,3.812a4.234,4.234,0,0,0-1.853-.454,4.01,4.01,0,0,0-3.743,3.184v12.489H762.36V221.714l4.861-1.224h.135v5.772c.91-3.464,3.043-5.666,5.561-5.666A6.453,6.453,0,0,1,774.463,220.8Z" transform="translate(-711.514 -187.744)" fill="#e0d8cd"/>
        <path id="Path_50" data-name="Path 50" d="M879.869,227.276v12.557h-5.143V226.787c0-1.294-.034-4.583-3.288-4.583a5.594,5.594,0,0,0-4.058,1.995v15.635h-5.14V221.714l5-1.224h.14v3.046a8.216,8.216,0,0,1,6.331-2.936C877.629,220.594,879.869,222.694,879.869,227.276Z" transform="translate(-796.56 -187.744)" fill="#e0d8cd"/>
        <path id="Path_51" data-name="Path 51" d="M1005.152,229.829v.141c0,6.051,2.59,8.848,6.262,8.848a7.686,7.686,0,0,0,6.016-3.077l.421.245a10.188,10.188,0,0,1-8.816,4.9c-5.282,0-9.233-3.637-9.233-9.444,0-6.262,4.268-10.214,10.074-10.214,5.841,0,8.219,3.986,8.011,8.6Zm0-.558h8.151c.454-4.548-1.259-7.521-3.713-7.521C1006.937,221.749,1005.323,225.037,1005.152,229.27Z" transform="translate(-913.69 -188.373)" fill="#e0d8cd"/>
        <path id="Path_52" data-name="Path 52" d="M1152.3,220.8l-1.365,3.812a4.234,4.234,0,0,0-1.853-.454,4.01,4.01,0,0,0-3.743,3.184v12.489H1140.2V221.714l4.861-1.224h.149v5.772c.911-3.464,3.043-5.666,5.561-5.666A6.455,6.455,0,0,1,1152.3,220.8Z" transform="translate(-1033.238 -187.744)" fill="#e0d8cd"/>
        <path id="Path_53" data-name="Path 53" d="M420,69.23c0-6.192,4.441-10.11,9.827-10.11a9.235,9.235,0,0,1,7.206,3.077l-1.782,1.574c-1.433-2.376-2.8-4.13-4.965-4.13-2.939,0-4.753,3.119-4.753,8.326,0,5.911,2.31,8.744,5.737,8.744a6.906,6.906,0,0,0,5.562-3.149l.419.245c-1.995,3.042-4.616,4.967-8.254,4.967C423.955,78.778,420,75.1,420,69.23Z" transform="translate(-420 -50.34)" fill="#e0d8cd"/>
        <path id="Path_54" data-name="Path 54" d="M565.6,58.725l-1.366,3.812a4.245,4.245,0,0,0-1.853-.454,4.011,4.011,0,0,0-3.744,3.184V77.753H553.5V59.634l4.861-1.224h.14v5.772c.911-3.463,3.044-5.666,5.562-5.666a6.477,6.477,0,0,1,1.542.209Z" transform="translate(-533.673 -49.735)" fill="#e0d8cd"/>
        <path id="Path_55" data-name="Path 55" d="M637.321,67.751v.14c0,6.051,2.59,8.85,6.263,8.85a7.687,7.687,0,0,0,6.014-3.079l.42.245a10.188,10.188,0,0,1-8.816,4.9c-5.281,0-9.233-3.637-9.233-9.444,0-6.262,4.268-10.214,10.074-10.214,5.841,0,8.219,3.988,8.01,8.605Zm0-.56h8.15c.456-4.548-1.259-7.521-3.713-7.521C639.1,59.67,637.488,62.956,637.321,67.191Z" transform="translate(-600.488 -50.365)" fill="#e0d8cd"/>
        <path id="Path_56" data-name="Path 56" d="M782.292,77.306v.211a7.574,7.574,0,0,1-3.922,1.152c-2.764,0-3.428-1.714-3.6-2.658a8.589,8.589,0,0,1-6.049,2.659c-3.043,0-4.934-1.924-4.934-4.478,0-3.184,2.939-5.386,7.7-5.877,1.336-.1,2.239-.174,3.254-.279V66.1c0-2.9-.456-5.632-4.2-5.632a8.066,8.066,0,0,0-5.175,1.959l-.315-.385a9.9,9.9,0,0,1,7.45-2.97c4.932,0,7.417,2.134,7.417,6.683v8.956c0,1.68,0,2.658,1.678,2.658a3.887,3.887,0,0,0,.7-.066Zm-7.554-1.957V68.562c-3.778.454-5.941,2.029-5.941,4.968,0,2.376,1.261,3.463,2.73,3.463a4.443,4.443,0,0,0,3.211-1.644Z" transform="translate(-712.725 -50.303)" fill="#e0d8cd"/>
        <path id="Path_57" data-name="Path 57" d="M901.9,42.051a9.317,9.317,0,0,1-5.668,2.029c-4.546,0-5.036-3.184-5.036-4.967V25.61H888.89v-.594l2.244-.175,5.072-6.471h.139v6.471h5.495l-.457.77H896.34V39.287c0,.875,0,3.218,2.449,3.218a5.852,5.852,0,0,0,2.832-.875Z" transform="translate(-819.251 -15.642)" fill="#e0d8cd"/>
        <path id="Path_58" data-name="Path 58" d="M990.09,3.252,993.344,0l3.219,3.252-3.219,3.254Zm.665,6.646,5-1.224h.138V28.018h-5.14Z" transform="translate(-905.422 0)" fill="#e0d8cd"/>
        <path id="Path_59" data-name="Path 59" d="M1065.544,61.94c-1.609,3.009-2.8,5.7-5.107,10.842l-3.812,8.676h-.172L1047.81,61.94h5.6l5.562,12.663.875-2.029c2.308-5.178,3.007-8.359,3.119-10.634Z" transform="translate(-954.569 -52.741)" fill="#e0d8cd"/>
        <path id="Path_60" data-name="Path 60" d="M1172.512,67.751v.14c0,6.051,2.587,8.85,6.262,8.85a7.693,7.693,0,0,0,6.017-3.079l.419.245a10.186,10.186,0,0,1-8.814,4.9c-5.282,0-9.233-3.637-9.233-9.444,0-6.262,4.267-10.214,10.074-10.214,5.842,0,8.219,3.988,8.008,8.605Zm0-.56h8.149c.456-4.548-1.258-7.521-3.713-7.521C1174.3,59.67,1172.687,62.956,1172.512,67.191Z" transform="translate(-1056.195 -50.365)" fill="#e0d8cd"/>
      </g>
      <g id="Group_593" data-name="Group 593" transform="translate(357.243 -205.91)">
        <rect id="Rectangle_11" data-name="Rectangle 11" width="31.255" height="31.255" transform="translate(0 27.843) rotate(-45)" fill="#e0d8cd"/>
        <path id="Path_61" data-name="Path 61" d="M184.927,73.542l-.457-.457,27.38-27.378L184.471,18.316l.456-.456,27.834,27.847Z" transform="translate(-157.073 -17.86)" fill="#e0d8cd"/>
      </g>
    </g>
  </g>
</svg>
